:version 1.10
:name ASF
:units
  mass 1
  length 1
  angle deg
:documentation
  ASF file generated by Kaydara
:root
  axis xyz
  order  tx ty tz rx ry rz
  position 0 0 0
  orientation 0 0 0
:bonedata
  begin
    id 1
    name RightUpLegDummy
    direction -0.718183 -0.695806 0.00816078
    length 4.904
    axis 0 0 0 xyz
  end
  begin
    id 2
    name RightUpLeg
    direction -0.0736652 -0.994202 0.0783343
    length 17.4976
    axis -2.72909 -3.00389 -4.00133 xyz
    dof rx ry rz
  end
  begin
    id 3
    name RightLeg
    direction -0.0389037 -0.994596 -0.0962598
    length 16.5821
    axis 3.95836 -18.5909 -4.46993 xyz
    dof rx ry rz
  end
  begin
    id 4
    name RightFoot
    direction -0.311643 -0.412678 0.855906
    length 3.77069
    axis -1.99483 -18.8351 -3.27644 xyz
    dof rx ry rz
  end
  begin
    id 5
    name RightToes
    direction -0.317852 0.0389852 0.947339
    length 3.85082
    axis -2.00228 -18.1713 -3.25211 xyz
    dof rx ry rz
  end
  begin
    id 6
    name SpineDummy
    direction 8.3039e-015 1 4.44677e-016
    length 4.6813
    axis 0 0 0 xyz
  end
  begin
    id 7
    name Spine
    direction -0.000262373 0.999988 0.00493267
    length 10.1015
    axis -0.00246081 0.00062579 0.0150362 xyz
    dof rx ry rz
  end
  begin
    id 8
    name Spine1
    direction 0 0 0
    length 0
    axis -0.00349562 0.000650293 0.0196666 xyz
    dof rx ry rz
  end
  begin
    id 9
    name HEadDummy
    direction -0.000343232 0.999999 0.00123745
    length 3.43865
    axis -0.00349562 0.000650293 0.0196666 xyz
  end
  begin
    id 10
    name HEad
    direction -0.0461221 0.980933 0.188796
    length 5.12695
    axis -0.00351404 -7.04812 0.0199272 xyz
    dof rx ry rz
  end
  begin
    id 11
    name LeftShoulder1Dummy
    direction 0.998904 -0.0399089 -0.0244534
    length 3.5433
    axis -0.00349562 0.000650293 0.0196666 xyz
  end
  begin
    id 12
    name LeftShoulder1
    direction 0.99951 1.64443e-005 0.0312999
    length 4.05031
    axis -0.00349562 0.000650293 0.0196666 xyz
    dof rx ry rz
  end
  begin
    id 13
    name LeftArm
    direction 0.984791 0.0515299 0.165927
    length 12.9126
    axis -64.823 -10.7743 5.20463 xyz
    dof rx ry rz
  end
  begin
    id 14
    name LeftForeArm
    direction 0.984968 0.0534808 0.16425
    length 10.8596
    axis -30.0462 -7.70601 1.87451 xyz
    dof rx ry rz
  end
  begin
    id 15
    name LeftHand
    direction 0.975871 0.0289682 0.216418
    length 6.62295
    axis -20.1348 -6.98077 1.86072 xyz
    dof rx ry rz
  end
  begin
    id 16
    name RightShoulderDummy
    direction -0.998877 -0.0405946 -0.0244307
    length 3.5433
    axis -0.00349562 0.000650293 0.0196666 xyz
  end
  begin
    id 17
    name RightShoulder
    direction -0.998933 -0.0249743 -0.0388558
    length 4.05031
    axis -0.0205316 -4.02113 1.41395 xyz
    dof rx ry rz
  end
  begin
    id 18
    name RightArm
    direction -0.997559 0.068664 0.0127103
    length 12.9638
    axis -67.3882 1.84188 -6.15987 xyz
    dof rx ry rz
  end
  begin
    id 19
    name RightForeArm
    direction -0.991508 0.0912848 0.0926241
    length 10.8312
    axis -22.1975 3.41087 -4.28711 xyz
    dof rx ry rz
  end
  begin
    id 20
    name RightHand
    direction -0.989262 0.0600788 0.133232
    length 6.57864
    axis -12.2911 2.17515 -4.39675 xyz
    dof rx ry rz
  end
  begin
    id 21
    name LeftUpLegDummy
    direction 0.718183 -0.695806 0.00816078
    length 4.904
    axis 0 0 0 xyz
  end
  begin
    id 22
    name LeftUpLeg
    direction 0.0831398 -0.99469 0.0606531
    length 17.4976
    axis -1.71016 2.29552 4.63832 xyz
    dof rx ry rz
  end
  begin
    id 23
    name LeftLeg
    direction 0.0498442 -0.991778 -0.117862
    length 16.5821
    axis 5.13757 15.5727 5.13348 xyz
    dof rx ry rz
  end
  begin
    id 24
    name LeftFoot
    direction 0.269026 -0.433896 0.85986
    length 3.77069
    axis -0.576502 15.6961 4.10267 xyz
    dof rx ry rz
  end
  begin
    id 25
    name LeftToes
    direction 0.277311 0.0251143 0.960452
    length 3.85048
    axis -0.576502 15.6961 4.10267 xyz
    dof rx ry rz
  end
:hierarchy
  begin
    root RightUpLegDummy SpineDummy LeftUpLegDummy
    RightUpLegDummy RightUpLeg
    RightUpLeg RightLeg
    RightLeg RightFoot
    RightFoot RightToes
    SpineDummy Spine
    Spine Spine1
    Spine1 HEadDummy LeftShoulder1Dummy RightShoulderDummy
    HEadDummy HEad
    LeftShoulder1Dummy LeftShoulder1
    LeftShoulder1 LeftArm
    LeftArm LeftForeArm
    LeftForeArm LeftHand
    RightShoulderDummy RightShoulder
    RightShoulder RightArm
    RightArm RightForeArm
    RightForeArm RightHand
    LeftUpLegDummy LeftUpLeg
    LeftUpLeg LeftLeg
    LeftLeg LeftFoot
    LeftFoot LeftToes
  end

:SAMPLES-PER-SECOND 30
:FULLY-SPECIFIED
:DEGREES
108
root  2.00703 24.1569 12.6401 -155.472 8.65498 -164.595
RightUpLeg  -92.2664 3.61443 33.8841
RightLeg  86.4188 15.8901 -12.3147
RightFoot  -17.6618 -0.430872 -12.5303
RightToes  -5.82073e-011 -3.18055e-015 -2.98177e-016
Spine  45.2897 -1.1667 12.0776
Spine1  -3.23092 3.1015 -4.68991
HEad  -28.1782 6.2205 2.09384
LeftShoulder1  -3.88251e-019 9.70628e-020 -3.87848e-018
LeftArm  -9.29659 -19.7631 -65.8977
LeftForeArm  6.84892 -4.89938 -1.8682
LeftHand  -1.17423 -4.05296 15.2315
RightShoulder  2.36756 9.29622 8.52673
RightArm  15.8082 15.4897 49.5937
RightForeArm  50.7439 14.8195 -1.92181
RightHand  -2.61641 11.1077 -18.2792
LeftUpLeg  -56.3452 13.2512 8.78182
LeftLeg  115.502 -16.6149 6.53055
LeftFoot  -49.3476 -7.08957 -21.0194
LeftToes  -3.44176e-011 4.05998e-011 -5.21293e-012
109
root  2.00592 23.1948 12.0735 -154.811 9.24265 -163.235
RightUpLeg  -94.1205 4.61744 35.4211
RightLeg  90.6353 16.769 -12.6729
RightFoot  -19.8357 -0.65351 -12.388
RightToes  -5.82073e-011 -3.18055e-015 -2.98177e-016
Spine  46.926 -1.35469 12.4669
Spine1  -4.10139 3.66397 -5.84096
HEad  -28.3461 6.43393 2.40769
LeftShoulder1  -3.88251e-019 9.70628e-020 -3.87848e-018
LeftArm  -8.38511 -21.901 -64.9164
LeftForeArm  8.25356 -5.38024 -1.80795
LeftHand  -1.13233 -3.61854 15.4243
RightShoulder  1.80961 8.75208 5.57838
RightArm  11.6854 19.748 53.3803
RightForeArm  53.7655 11.9605 -2.33087
RightHand  -2.59434 11.3856 -17.839
LeftUpLeg  -55.5331 13.5491 10.5295
LeftLeg  120.051 -16.4093 5.22248
LeftFoot  -50.1272 -7.87958 -22.8313
LeftToes  -3.44176e-011 4.05998e-011 -5.21293e-012
110
root  2.01538 22.2663 11.46 -153.352 10.0259 -162.349
RightUpLeg  -96.5517 6.04629 36.4275
RightLeg  94.5431 17.6374 -13.0064
RightFoot  -21.9989 -0.859747 -12.1007
RightToes  -5.82073e-011 -3.18055e-015 -2.98177e-016
Spine  47.5487 -1.20592 12.2088
Spine1  -4.94083 4.05094 -6.68325
HEad  -28.4939 6.95259 2.6946
LeftShoulder1  -3.88251e-019 9.70628e-020 -3.87848e-018
LeftArm  -7.67138 -23.5477 -63.8622
LeftForeArm  8.03137 -5.80777 -1.63209
LeftHand  -1.17657 -3.58122 16.0767
RightShoulder  1.39205 8.30758 3.26795
RightArm  9.86069 23.503 57.4704
RightForeArm  53.064 9.16022 -4.06835
RightHand  -2.50223 11.3512 -17.2556
LeftUpLeg  -55.2905 13.9459 11.1971
LeftLeg  124.073 -16.3548 4.49598
LeftFoot  -50.4662 -8.67065 -24.8596
LeftToes  -3.44176e-011 4.05998e-011 -5.21293e-012
111
root  2.00466 21.4141 10.8042 -151.482 10.7549 -161.505
RightUpLeg  -98.998 7.54668 37.3252
RightLeg  97.9965 18.4594 -13.3294
RightFoot  -24.0563 -1.05403 -11.9141
RightToes  -5.82073e-011 -3.18055e-015 -2.98177e-016
Spine  47.4362 -0.970165 11.8552
Spine1  -5.3378 4.35701 -7.28834
HEad  -28.8911 7.70583 2.88605
LeftShoulder1  -3.88251e-019 9.70628e-020 -3.87848e-018
LeftArm  -7.29978 -25.1564 -62.884
LeftForeArm  8.69241 -5.38346 -1.22345
LeftHand  -1.53735 -4.4898 18.831
RightShoulder  1.15855 8.10123 1.8762
RightArm  8.31559 26.8388 61.2357
RightForeArm  50.7142 7.37499 -6.26895
RightHand  -2.31134 11.0504 -16.2505
LeftUpLeg  -55.1179 14.4648 11.3543
LeftLeg  127.407 -16.5263 4.26356
LeftFoot  -50.6097 -9.43964 -26.9215
LeftToes  -3.44176e-011 4.05998e-011 -5.21293e-012
112
root  1.9342 20.7056 10.1427 -149.915 11.1537 -160.194
RightUpLeg  -100.54 8.51337 38.5556
RightLeg  101.076 19.1379 -13.2606
RightFoot  -26.142 -1.23521 -11.6479
RightToes  -5.82073e-011 -3.18055e-015 -2.98177e-016
Spine  47.5624 -0.991713 12.0531
Spine1  -5.39316 4.69251 -7.78978
HEad  -29.6326 8.4485 2.7702
LeftShoulder1  -3.88251e-019 9.70628e-020 -3.87848e-018
LeftArm  -7.35535 -26.6116 -61.7171
LeftForeArm  10.5417 -5.00324 -0.563907
LeftHand  -2.17787 -5.71468 23.5583
RightShoulder  1.02425 7.96016 1.07552
RightArm  7.20261 29.7805 64.8446
RightForeArm  46.114 6.33758 -8.17605
RightHand  -2.06883 10.5904 -14.9935
LeftUpLeg  -54.3106 14.8312 12.1014
LeftLeg  130.037 -16.6941 4.11927
LeftFoot  -50.287 -9.88958 -28.4342
LeftToes  -3.44176e-011 4.05998e-011 -5.21293e-012
